<svg width="126" height="90" viewBox="0 0 126 90" fill="none" xmlns="http://www.w3.org/2000/svg">
<path d="M11.7891 18.792L18.7551 27H13.3821L9.17009 22.437V22.464V27H4.63409V21.627L4.60709 21.6L4.63409 21.573V10.152H9.19709L9.17009 14.958L12.4911 10.125H17.9451L17.8101 10.287H17.8911L11.7891 18.792ZM19.7161 26.973L25.8721 10.017H30.7861L36.5911 26.973H27.0871V23.382H30.7861L28.3291 15.768L24.3061 26.973H19.7161ZM42.1554 27.027H37.5654V18.9L37.5384 18.873L37.5654 18.846V10.152L48.5814 10.125C49.2474 10.125 49.7784 10.278 50.1744 10.584C50.5704 10.89 50.8404 11.394 50.9844 12.096C50.9844 13.248 50.9844 14.166 50.9844 14.85C50.9844 15.516 50.9844 16.038 50.9844 16.416C50.9844 16.794 50.9844 17.073 50.9844 17.253C50.9844 17.415 50.9844 17.559 50.9844 17.685C50.8584 18.279 50.6424 18.729 50.3364 19.035C50.0484 19.341 49.6614 19.539 49.1754 19.629V19.71H47.4474L50.9574 27.081H46.2324L42.8034 19.764V16.875H46.1514V13.743H41.9934L42.1554 27.027ZM56.4728 27.027H51.8828V18.9L51.8558 18.873L51.8828 18.846V10.152L62.8988 10.125C63.5648 10.125 64.0958 10.278 64.4918 10.584C64.8878 10.89 65.1578 11.394 65.3018 12.096C65.3018 13.248 65.3018 14.166 65.3018 14.85C65.3018 15.516 65.3018 16.038 65.3018 16.416C65.3018 16.794 65.3018 17.073 65.3018 17.253C65.3018 17.415 65.3018 17.559 65.3018 17.685C65.1758 18.279 64.9598 18.729 64.6538 19.035C64.3658 19.341 63.9788 19.539 63.4928 19.629V19.71H61.7648L65.2748 27.081H60.5498L57.1208 19.764V16.875H60.4688V13.743H56.3108L56.4728 27.027ZM79.5112 27H66.1462V10.152H70.7092L70.7632 23.463H74.8402V10.233H74.9212V10.152H79.4842L79.5112 27ZM81.6818 23.382H88.9718L88.9988 20.304H82.7618C81.4298 20.304 80.6288 19.737 80.3588 18.603C80.3588 18.315 80.3588 18.009 80.3588 17.685C80.3768 17.361 80.3858 17.055 80.3858 16.767H80.3588V12.096C80.5028 11.394 80.7728 10.89 81.1688 10.584C81.5648 10.278 82.0958 10.125 82.7618 10.125H93.7778C93.5078 10.917 93.2648 11.61 93.0488 12.204C92.8328 12.78 92.6438 13.302 92.4818 13.77V13.743H89.7818V13.77H85.1918V16.767L91.4018 16.74C92.0678 16.74 92.5988 16.893 92.9948 17.199C93.3908 17.505 93.6608 18.009 93.8048 18.711C93.8048 18.747 93.7958 18.792 93.7778 18.846C93.7778 18.882 93.7778 18.918 93.7778 18.954H93.8318V25.245C93.5618 26.379 92.7608 26.946 91.4288 26.946L87.9458 27V27.027L80.3588 27.081L81.6818 23.382ZM94.8105 10.152H108.176L106.853 13.77H99.4005V16.848H106.853V20.385H99.4005V23.355L108.176 23.328L106.88 27H94.8105V10.152ZM113.742 23.382H121.194L122.517 27H109.152V10.152H113.715L113.742 23.382Z" fill="#F0E5FF"/>
<g clip-path="url(#clip0_574_850)">
<path d="M14.9083 31.1022C14.8415 31.274 14.7261 31.4436 14.7159 31.6194C14.6734 32.4147 14.6592 33.2099 14.641 34.0051C14.6329 34.322 14.641 34.6388 14.641 34.9557C14.5985 34.9557 14.5559 34.9557 14.5134 34.9557C14.4749 34.7779 14.4405 34.598 14.3979 34.4201C14.2015 33.6147 14.0293 32.801 13.7964 32.0058C13.687 31.6317 13.4602 31.3005 12.9761 31.3046C12.0526 31.3148 11.129 31.3026 10.2054 31.3128C8.94157 31.3251 7.67975 31.3639 6.41794 31.3659C5.47411 31.368 4.53231 31.3332 3.58848 31.3128C3.19961 31.3046 2.98897 31.4702 2.89783 31.8791C2.32059 34.4814 1.73121 37.0777 1.12764 39.6739C1.0527 39.9928 1.13372 40.14 1.41322 40.2647C2.38338 40.694 3.35151 41.1356 4.31357 41.5833C6.28427 42.4991 8.25091 43.4272 10.2257 44.3369C10.6328 44.525 10.7826 44.7519 10.7037 45.2405C10.5416 46.2238 10.57 47.2071 11.0986 48.1086C11.8156 49.3311 12.9336 49.9873 14.2501 50.3103C16.478 50.8582 18.6553 51.0749 20.464 49.1696C20.6179 49.0081 21.0189 49.004 21.2822 49.0551C21.5678 49.1103 21.819 49.325 22.0944 49.4558C22.9754 49.8708 23.8484 50.3083 24.7456 50.6824C25.8009 51.1198 26.9027 51.4531 27.9457 51.9151C29.4384 52.5754 30.8906 53.3358 32.3773 54.0104C33.1732 54.3702 34.0259 54.6012 34.8219 54.959C36.2518 55.6009 37.6453 56.3266 39.0772 56.9644C41.7264 58.1419 44.3979 59.2683 47.0512 60.4397C49.4249 61.4884 51.7784 62.5842 54.1582 63.6186C54.5937 63.8066 54.7699 63.9988 54.7861 64.4874C54.8367 66.0656 54.9461 67.6397 55.0393 69.3507C56.8621 69.4632 58.6667 69.5736 60.4592 69.6819C60.6172 70.6264 60.5159 71.4666 59.8253 72.1637C59.6126 72.3783 59.4708 72.6604 59.2723 72.8914C58.0368 74.3367 57.8505 76.0335 58.1037 77.8325C58.3589 79.6396 58.9665 81.3425 59.8536 82.9105C61.1053 85.1224 62.4745 87.2689 63.797 89.4399C63.872 89.5646 63.9935 89.6607 64.1474 89.8263C64.5079 89.1087 64.834 88.4423 65.1723 87.784C66.3794 85.429 67.6351 83.0985 68.7896 80.719C70.0413 78.1371 70.2661 75.5326 68.7835 72.9078C68.3764 72.1862 68.1698 71.3276 67.9855 70.5058C67.7344 69.3896 67.8762 69.2628 68.9861 69.2628C69.138 69.2628 69.2899 69.2628 69.4418 69.2628H72.091C72.2307 67.3616 72.3847 65.5218 72.4859 63.6799C72.5102 63.2588 72.569 63.0298 73.0125 62.8704C74.406 62.3695 75.7974 61.8482 77.1524 61.2472C79.6477 60.1372 82.1004 58.9331 84.5977 57.8251C88.0794 56.2796 91.5934 54.8057 95.075 53.2622C97.1855 52.326 99.2615 51.314 101.354 50.341C102.344 49.881 103.365 49.4783 104.327 48.9631C105.2 48.495 105.172 48.4439 105.941 49.0817C107.197 50.1222 108.601 50.8009 110.257 50.5597C111.572 50.3675 112.757 49.7604 113.826 48.9652C114.849 48.2047 115.357 47.1907 115.256 45.8844C115.215 45.3611 115.244 44.8316 115.226 44.3042C115.215 44.0057 115.313 43.832 115.62 43.7584C117.338 43.3434 118.9 42.54 120.473 41.7672C121.895 41.0681 123.329 40.3914 124.901 40.093" stroke="#F0E5FF" stroke-miterlimit="10"/>
<path d="M124.899 40.0807C123.327 40.3792 121.893 41.0558 120.471 41.755C118.898 42.5297 117.336 43.3331 115.618 43.7461C115.311 43.8197 115.213 43.9955 115.223 44.2919C115.242 44.8193 115.213 45.3468 115.254 45.8721C115.355 47.1784 114.847 48.1924 113.824 48.9529C112.755 49.7481 111.57 50.3552 110.255 50.5474C108.6 50.7886 107.195 50.1099 105.939 49.0694C105.169 48.4316 105.198 48.4847 104.325 48.9508C103.363 49.466 102.342 49.8687 101.352 50.3287C99.2574 51.3017 97.1814 52.3137 95.0729 53.2499C91.5913 54.7934 88.0773 56.2673 84.5956 57.8128C82.1004 58.9208 79.6456 60.1249 77.1503 61.2349C75.7974 61.838 74.4059 62.3572 73.0105 62.8581C72.5669 63.0175 72.5061 63.2465 72.4839 63.6676C72.3806 65.5095 72.2287 67.3494 72.0889 69.2505H69.4397C69.2878 69.2505 69.1359 69.2505 68.984 69.2505C67.8741 69.2505 67.7323 69.3773 67.9835 70.4935C68.1678 71.3153 68.3744 72.1739 68.7815 72.8955C70.264 75.5203 70.0392 78.1248 68.7875 80.7067C67.6331 83.0883 66.3773 85.4188 65.1702 87.7717C64.832 88.43 64.5059 89.0964 64.1453 89.814C63.9934 89.6484 63.8719 89.5523 63.795 89.4276C62.4724 87.2566 61.1032 85.1101 59.8515 82.8982C58.9644 81.3302 58.3568 79.6253 58.1016 77.8202C57.8484 76.0212 58.0327 74.3244 59.2703 72.8791C59.4687 72.6481 59.6105 72.366 59.8232 72.1514C60.5138 71.4543 60.6151 70.6141 60.4571 69.6696C58.6647 69.5592 56.8621 69.4488 55.0372 69.3384C54.944 67.6274 54.8326 66.0533 54.784 64.4751C54.7678 63.9865 54.5916 63.7964 54.1562 63.6063C51.7763 62.5719 49.4228 61.4761 47.0491 60.4274C44.3958 59.256 41.7244 58.1296 39.0752 56.9521C37.6432 56.3164 36.2498 55.5906 34.8198 54.9467C34.0239 54.589 33.1691 54.3579 32.3752 53.9982C30.8865 53.3235 29.4364 52.5651 27.9437 51.9028C26.8986 51.4408 25.7988 51.1075 24.7436 50.6701C23.8443 50.298 22.9734 49.8605 22.0923 49.4435C21.8189 49.3147 21.5657 49.1001 21.2801 49.0428C21.0189 48.9917 20.6158 48.9978 20.4619 49.1573C18.6553 51.0626 16.4759 50.8459 14.248 50.298C12.9315 49.973 11.8135 49.3167 11.0965 48.0963C10.5679 47.1948 10.5395 46.2115 10.7016 45.2282C10.7806 44.7416 10.6307 44.5127 10.2236 44.3246C8.24884 43.4149 6.28422 42.4868 4.31149 41.571C3.34741 41.1233 2.3813 40.6837 1.41114 40.2524C1.13164 40.1277 1.05063 39.9805 1.12557 39.6616C1.73116 37.0776 2.32054 34.4814 2.89372 31.879C2.98487 31.4702 3.19551 31.3046 3.58438 31.3128C4.52821 31.3332 5.47001 31.368 6.41384 31.3659C7.67565 31.3639 8.93949 31.325 10.2013 31.3128C11.1249 31.3025 12.0485 31.3148 12.972 31.3046C13.4561 31.2985 13.6829 31.6296 13.7923 32.0058C14.0252 32.801 14.1994 33.6126 14.3938 34.4201C14.4364 34.5979 14.4708 34.7778 14.5093 34.9557C14.5518 34.9557 14.5944 34.9557 14.6369 34.9557C14.6369 34.6388 14.6308 34.3219 14.6369 34.0051C14.6551 33.2099 14.6713 32.4126 14.7118 31.6194C14.722 31.4436 14.8374 31.2739 14.9042 31.1022C15.3093 31.1022 15.7144 31.1022 16.1195 31.1022C16.5529 31.141 16.9863 31.2044 17.4198 31.2105C20.0285 31.2473 22.6372 31.276 25.2479 31.2882C25.6185 31.2882 25.8251 31.4477 25.9244 31.7625C26.1451 32.4719 26.3477 33.1874 26.5421 33.9029C26.6251 34.2054 26.6677 34.5182 26.7284 34.8269C26.7811 34.8208 26.8337 34.8146 26.8864 34.8085C26.937 34.2708 26.9735 33.7332 27.0424 33.1976C27.1315 32.4964 27.2469 31.7993 27.3522 31.1022C27.6561 31.1022 27.9599 31.1022 28.2637 31.1022C29.2196 31.141 30.1736 31.1901 31.1296 31.2187C33.3676 31.2882 35.6057 31.3496 37.8437 31.4068C38.2549 31.417 38.4412 31.5908 38.4898 32.014C38.5587 32.6211 38.6843 33.2201 38.7936 33.8231C38.826 34.0051 38.8909 34.1809 38.9395 34.3587L39.1035 34.3526C39.3729 33.3795 39.6423 32.4044 39.936 31.3455C41.2281 31.3025 42.5224 31.2371 43.8166 31.2208C45.5361 31.2003 47.2557 31.2249 48.9773 31.2208C49.8968 31.2167 50.5328 31.7278 50.7009 32.6518C50.7697 33.0361 50.8042 33.4266 50.8548 33.815C50.9095 34.2197 50.9682 34.6245 51.0249 35.0313C51.1728 34.8698 51.2234 34.7124 51.2619 34.5509C51.4503 33.7925 51.6406 33.0361 51.8189 32.2756C51.989 31.5499 52.3981 31.1513 53.1739 31.1962C53.3359 31.2044 53.502 31.137 53.666 31.1042C56.6332 31.1042 59.6024 31.1042 62.5696 31.1042C62.758 31.8811 62.9484 32.6559 63.1367 33.4327L63.3008 33.4041C63.3939 32.6375 63.4871 31.8709 63.5803 31.1022C66.5819 31.1022 69.5835 31.1022 72.5851 31.1022C73.1968 31.2065 73.8044 31.3209 74.4181 31.4068C74.7097 31.4477 74.8171 31.5806 74.8232 31.8709C74.8353 32.3962 74.8576 32.9237 74.9143 33.447C74.9568 33.8599 75.0561 34.2647 75.129 34.6736C75.1877 34.6654 75.2485 34.6593 75.3072 34.6511C75.372 34.2013 75.5199 33.7455 75.4834 33.3039C75.4126 32.4392 75.7265 31.7462 76.2268 31.1002C79.2284 31.1002 82.23 31.1002 85.2316 31.1002C85.3086 31.1329 85.3815 31.1819 85.4625 31.1962C86.3618 31.3475 86.9593 31.7646 87.0443 32.7806C87.0869 33.2773 87.2995 33.7598 87.4332 34.2484C87.4778 34.2402 87.5243 34.232 87.5689 34.2238C87.656 33.5533 87.7674 32.8828 87.8221 32.2102C87.8545 31.787 88.053 31.5519 88.4277 31.4354C88.8105 31.3169 89.1973 31.2126 89.5821 31.1022C92.4825 31.1022 95.3828 31.1022 98.2832 31.1022C99.2169 32.2163 99.15 33.6453 99.5004 34.9639C99.5814 34.8003 99.624 34.6327 99.6544 34.463C99.7577 33.862 99.8812 33.2651 99.9541 32.6599C100.029 32.0446 100.266 31.5254 100.714 31.1022C104.187 31.1022 107.663 31.1022 111.136 31.1022C111.347 31.9485 111.56 32.7949 111.77 33.6432C111.813 33.6351 111.855 33.6289 111.898 33.6208C112.149 32.7806 112.402 31.9424 112.653 31.1022C116.094 31.1022 119.533 31.1022 122.975 31.1022C123.384 32.8235 123.799 34.5448 124.202 36.2681C124.443 37.2984 124.666 38.3349 124.897 39.3672V40.0807H124.899ZM66.5049 61.6438C66.8897 61.6438 67.1591 61.6254 67.4265 61.6479C68.1556 61.7112 68.7369 61.472 69.2959 60.9712C70.3147 60.0574 71.38 59.1947 72.4676 58.3627C76.7918 55.0591 81.1282 51.774 85.4706 48.4949C85.8129 48.2374 85.8615 48.0043 85.7704 47.5955C85.1709 44.9215 85.6367 42.5359 87.7127 40.6102C87.7552 40.5713 87.7775 40.512 87.8363 40.42C87.3319 40.373 86.8843 40.2933 86.4367 40.2974C83.0847 40.3219 79.7327 40.3546 76.3807 40.4098C76.1944 40.4119 75.9371 40.5836 75.8419 40.7492C75.4632 41.4095 75.131 42.0984 74.7867 42.7791C72.3684 47.5668 70.2499 52.4895 68.2103 57.4489C67.6493 58.8104 67.1004 60.176 66.5069 61.6417L66.5049 61.6438ZM40.0798 47.9246C40.2539 48.0718 40.4301 48.2271 40.6145 48.3723C43.6728 50.8193 46.9559 52.9678 49.8927 55.5845C51.1161 56.6741 52.5946 57.4796 53.982 58.377C54.9967 59.0353 56.1167 59.5198 56.9633 60.4438C57.3077 60.822 57.7877 61.0898 58.2414 61.3433C58.5917 61.5375 58.9968 61.6315 59.4971 61.8114C59.1913 61.0407 58.9644 60.4192 58.6991 59.8162C55.9162 53.481 53.1252 47.1478 50.3444 40.8125C50.2127 40.512 50.0548 40.3853 49.7064 40.3853C45.9473 40.3996 42.1902 40.3935 38.4311 40.3955C38.2954 40.3955 38.1597 40.42 37.9369 40.4405C38.1111 40.6306 38.2164 40.7369 38.3096 40.8534C38.905 41.5853 39.6261 42.2517 40.0615 43.0694C40.8656 44.5761 41.3112 46.1747 40.1304 47.7508C40.102 47.7876 40.1 47.8428 40.0777 47.9226L40.0798 47.9246ZM52.7607 40.4589C52.8842 40.8125 52.9571 41.0558 53.0523 41.2889C54.3283 44.435 55.5334 47.6118 56.9066 50.713C58.5087 54.3273 60.2586 57.8741 61.9417 61.4516C62.0612 61.7071 62.205 61.8523 62.523 61.8134C62.9889 61.7542 63.4628 61.7092 63.9327 61.7235C64.3236 61.7358 64.4735 61.5722 64.6132 61.2247C65.5591 58.8799 66.4847 56.5269 67.5075 54.2148C69.3749 49.9934 71.4043 45.8456 72.9315 41.4769C73.0408 41.1642 73.1421 40.8493 73.2474 40.5366C71.9471 40.1625 67.2523 40.1727 66.6508 40.5284C66.6548 40.5447 66.6507 40.5672 66.6609 40.5774C66.7156 40.6408 66.7702 40.7062 66.831 40.7635C68.0604 41.9062 68.5101 43.3536 68.4594 44.9951C68.3642 48.1168 66.0107 50.6006 62.9949 50.7518C59.8536 50.9092 57.5649 48.9856 56.9937 45.868C56.7831 44.7192 57.2266 43.5846 57.6378 42.5052C57.9558 41.6691 58.612 41.1376 59.4201 40.7941C59.5943 40.7205 59.7685 40.6429 59.9427 40.5652C59.9326 40.5284 59.9224 40.4936 59.9123 40.4568H52.7607V40.4589ZM21.7035 47.0353C32.6993 52.1011 43.7822 56.9215 54.938 61.5886C54.6868 61.3228 54.4134 61.1 54.1157 60.918C53.2589 60.3906 52.3677 59.9429 51.5556 59.3133C49.6315 57.825 47.6142 56.4615 45.6455 55.0305C44.0475 53.8694 42.4434 52.7164 41.0884 51.2466C40.6469 50.7682 40.0716 50.4125 39.5511 50.0077C39.0043 49.5825 38.4615 49.5825 37.8721 49.9689C36.9586 50.5699 36.0229 51.0074 34.8441 50.807C33.2927 50.5433 31.8425 50.1406 30.7913 48.867C29.4242 47.2091 29.2642 45.2936 29.7098 43.28C29.7928 42.9018 29.7057 42.6728 29.4323 42.4439C28.612 41.7611 27.6824 41.2991 26.6616 41.019C24.3223 40.3771 21.9283 40.3935 19.5343 40.4425C19.431 40.4446 19.3277 40.4834 19.1413 40.5223C21.4624 42.1475 22.3273 44.2837 21.7035 47.0353ZM72.5952 60.7545C72.6236 60.7974 72.652 60.8404 72.6823 60.8833C72.8039 60.8342 72.9254 60.7852 73.0469 60.7341C75.7751 59.5668 78.4972 58.3872 81.2315 57.2363C82.3637 56.76 83.5445 56.392 84.6625 55.885C88.132 54.3109 91.5974 52.7225 95.0385 51.0851C98.113 49.6213 101.153 48.084 104.214 46.5876C104.497 46.4486 104.598 46.3014 104.527 45.96C104.096 43.8749 104.675 42.1004 106.211 40.6408C106.322 40.5345 106.423 40.42 106.61 40.2258C104.363 40.1686 102.267 40.2033 100.193 40.6592C98.8219 40.9618 97.6087 41.5464 96.6892 42.6401C96.515 42.8486 96.4077 43.1696 96.3894 43.4456C96.355 43.9342 96.434 44.4289 96.4259 44.9215C96.3894 47.7447 94.5767 49.975 91.8182 50.619C90.5482 50.9154 89.3452 50.5474 88.2292 49.9157C87.893 49.7256 87.6297 49.744 87.3097 49.975C83.3298 52.837 79.3357 55.6745 75.3619 58.5446C74.4059 59.2356 73.5168 60.0165 72.5952 60.7565V60.7545ZM122.693 38.249C122.355 36.5298 122.017 34.8882 121.723 33.2405C121.654 32.8501 121.508 32.756 121.14 32.7581C118.95 32.7744 116.763 32.7642 114.573 32.7662C113.931 32.7662 113.711 32.9134 113.609 33.5533C113.391 34.9434 113.214 36.3397 113.018 37.7339C112.963 38.1304 113.111 38.2613 113.52 38.2592C115.793 38.2408 118.065 38.2511 120.338 38.2511C121.077 38.2511 121.814 38.2511 122.691 38.2511L122.693 38.249ZM86.3152 38.339C86.3152 38.0568 86.3395 37.9178 86.3111 37.7911C85.9932 36.2967 85.6752 34.8044 85.3248 33.3182C85.2984 33.2037 85.0331 33.077 84.8792 33.0749C82.5865 33.0586 80.2917 33.0708 77.999 33.0565C77.6607 33.0545 77.5109 33.1751 77.4541 33.4961C77.3286 34.1972 77.1483 34.8923 77.0693 35.5976C76.968 36.5012 76.9458 37.4129 76.8891 38.341H86.3152V38.339ZM15.9757 38.3369C19.2993 38.6068 22.4994 38.5597 25.7421 38.3328C25.497 36.7812 25.1871 35.3339 24.6119 33.9417C24.3709 33.3611 24.0164 33.1363 23.4331 33.1363C21.345 33.1404 19.2568 33.1383 17.1706 33.1301C16.883 33.1301 16.7635 33.2221 16.717 33.5267C16.5833 34.4139 16.3929 35.295 16.2511 36.1822C16.1397 36.8793 16.0688 37.5826 15.9736 38.3349L15.9757 38.3369ZM73.9725 38.4289C73.7457 36.6177 73.5452 34.97 73.0368 33.3816C72.9983 33.263 72.7674 33.1383 72.6256 33.1363C70.2863 33.1015 67.947 33.0872 65.6077 33.0586C65.2674 33.0545 65.1884 33.2364 65.1499 33.5247C64.9656 34.9557 64.7833 36.3867 64.5707 37.8115C64.5038 38.2592 64.6152 38.4126 65.077 38.4105C66.9951 38.4003 68.9151 38.4207 70.8332 38.4269C71.8398 38.431 72.8464 38.4269 73.9725 38.4269V38.4289ZM110.344 38.2306C110.324 36.4439 109.864 34.7635 109.625 33.0545C109.471 33.0381 109.39 33.0197 109.307 33.0197C106.883 33.034 104.461 33.0545 102.036 33.0586C101.722 33.0586 101.682 33.2467 101.641 33.4695C101.378 34.8698 101.113 36.2701 100.859 37.6705C100.754 38.2531 100.851 38.3533 101.443 38.3471C104.222 38.3165 107 38.2879 109.779 38.2592C109.943 38.2592 110.107 38.2429 110.346 38.2327L110.344 38.2306ZM28.1928 38.431C28.3629 38.4473 28.4763 38.4677 28.5898 38.4677C29.6997 38.4575 30.8116 38.4412 31.9215 38.431C33.6714 38.4126 35.4214 38.4003 37.1733 38.3758C37.8154 38.3655 37.8721 38.3103 37.7688 37.6603C37.6898 37.1594 37.5359 36.6729 37.4265 36.1761C37.2402 35.3339 37.0417 34.4957 36.8958 33.6473C36.8432 33.3427 36.7298 33.2487 36.4503 33.2405C35.3079 33.2017 34.1656 33.1506 33.0233 33.1036C31.8466 33.0545 30.6739 33.0034 29.5174 33.3407C29.0677 33.4715 28.8206 33.7168 28.7822 34.1829C28.768 34.3526 28.7437 34.5202 28.7214 34.6879C28.5472 35.9267 28.373 37.1635 28.1948 38.433L28.1928 38.431ZM61.7493 38.3798C61.7493 38.0752 61.7838 37.8667 61.7432 37.6766C61.4617 36.3335 61.1539 34.9945 60.8764 33.6494C60.7832 33.1955 60.526 33.0545 60.0946 33.0606C58.0915 33.0872 56.0884 33.0872 54.0853 33.1199C53.2549 33.1342 53.2569 33.1628 53.1273 33.9662C53.0888 34.2013 53.0361 34.4323 52.9936 34.6674C52.8052 35.7018 52.6169 36.7362 52.4326 37.7706C52.3515 38.2286 52.5399 38.3921 53.0057 38.388C55.4646 38.3717 57.9234 38.3798 60.3822 38.3798C60.8318 38.3798 61.2794 38.3798 61.7473 38.3798H61.7493ZM49.6882 38.3594C49.595 37.5396 49.5444 36.8282 49.4249 36.127C49.2973 35.3788 49.1271 34.6347 48.9367 33.8988C48.795 33.355 48.4203 33.124 47.843 33.1281C45.8541 33.1363 43.8652 33.1199 41.8763 33.0933C41.5502 33.0892 41.3699 33.1976 41.293 33.5104C40.9507 34.9271 40.6023 36.3417 40.2701 37.7604C40.2296 37.9301 40.2843 38.1223 40.2985 38.3594H49.6861H49.6882ZM98.1556 38.2204C98.1779 38.1488 98.2082 38.1018 98.2042 38.0568C98.0584 36.5195 97.9267 34.9761 97.3292 33.5308C97.2705 33.3877 97.0396 33.2303 96.8857 33.2262C94.516 33.1792 92.1463 33.1506 89.7766 33.1424C89.6652 33.1424 89.4788 33.3346 89.4505 33.4633C89.2358 34.4364 89.0393 35.4136 88.8591 36.3928C88.7477 36.9918 88.6748 37.5969 88.5796 38.2183H98.1556V38.2204ZM13.446 38.4085C13.4014 38.1182 13.3974 37.9342 13.3427 37.7625C12.8991 36.3397 12.4454 34.9209 11.9978 33.5001C11.8966 33.1812 11.6798 33.1056 11.372 33.1363C10.9365 33.1792 10.5011 33.2099 10.0636 33.2139C8.38251 33.2283 6.70144 33.2385 5.02038 33.2344C4.68416 33.2344 4.52821 33.3693 4.49378 33.7005C4.44314 34.1891 4.3601 34.6756 4.31757 35.1662C4.22238 36.2599 4.14339 37.3557 4.04819 38.5863C7.21589 38.527 10.3006 38.4698 13.45 38.4105L13.446 38.4085ZM113.174 44.8439C113.247 43.7175 112.929 42.7464 112.11 41.9798C111.337 41.2541 110.466 40.8636 109.36 41.1028C107.892 41.4197 106.591 42.1352 106.29 43.7359C106.221 44.1018 106.156 44.4718 106.134 44.8418C106.026 46.606 106.822 47.9777 108.309 48.6176C109.635 49.19 111.412 48.8323 112.256 47.6731C112.85 46.8595 113.279 45.911 113.174 44.8439ZM38.6843 45.5451C38.4574 44.7008 38.2448 43.8503 37.9916 43.0142C37.9389 42.8384 37.7728 42.6524 37.6108 42.5665C36.8351 42.1618 36.0654 41.7263 35.2492 41.4238C34.4937 41.1437 33.716 41.3441 33.1529 41.9062C32.6324 42.4255 32.2091 43.0551 31.8061 43.6786C30.7853 45.2609 30.9433 47.714 33.6127 48.5113C33.7261 48.544 33.8375 48.5808 33.9489 48.6156C35.0203 48.9426 36.0877 48.7464 37.0559 48.3396C38.2063 47.8571 38.5749 46.7839 38.6843 45.543V45.5451ZM16.3139 41.2848C16.3018 41.3257 16.2876 41.3686 16.2754 41.4095C14.5802 41.4708 13.2131 42.2067 12.8505 44.0957C12.7837 44.4452 12.7087 44.7928 12.6378 45.1423C12.4697 45.9621 12.6581 46.7328 13.1766 47.342C13.606 47.8449 14.1508 48.2783 14.7139 48.6278C15.0237 48.82 15.4957 48.8731 15.8663 48.8118C17.0309 48.6196 18.0598 48.0943 19.0036 47.3686C19.8563 46.7144 19.8826 45.8149 19.7591 44.9011C19.6781 44.3021 19.4371 43.7256 19.2588 43.141C19.0927 42.5972 18.7788 42.1372 18.2583 41.9205C17.6304 41.6609 16.9641 41.4912 16.3159 41.2827L16.3139 41.2848ZM59.1447 44.8234C59.1406 47.7978 61.6967 49.605 64.2021 48.3232C65.4173 47.7018 66.4199 46.8657 66.4421 45.3161C66.4685 43.5294 65.2978 41.9471 63.5762 41.5239C63.1367 41.4156 62.6344 41.3829 62.199 41.4831C61.5144 41.6405 60.848 41.9083 60.204 42.1945C59.9589 42.3028 59.6855 42.5563 59.6085 42.8037C59.4019 43.4599 59.2925 44.1488 59.1447 44.8234ZM94.4512 44.895C94.439 44.204 94.0056 43.1471 93.1529 42.2701C91.2166 40.279 88.3892 41.019 87.6236 43.695C87.3704 44.5801 87.5446 45.4101 87.7512 46.2483C88.0368 47.3951 88.774 48.1801 89.8191 48.6687C90.0014 48.7546 90.2525 48.7668 90.453 48.7239C91.0951 48.589 91.729 48.4214 92.363 48.2476C93.8314 47.8449 94.4815 46.9679 94.4512 44.895ZM70.1628 67.0407C70.1628 65.947 70.1567 65.0005 70.1648 64.056C70.1668 63.7064 69.942 63.6778 69.6949 63.688C67.9105 63.7535 66.1262 63.8352 64.3418 63.8945C62.3083 63.962 60.2748 64.0192 58.2414 64.0621C57.9092 64.0683 57.6621 64.1603 57.5892 64.4894C57.4292 65.2008 57.2955 65.9163 57.1639 66.6339C57.1152 66.8955 57.2266 67.0427 57.5163 67.0611C58.2211 67.1061 58.9259 67.2287 59.6308 67.2185C62.0552 67.1838 64.4795 67.0959 66.9039 67.0468C67.9429 67.0243 68.982 67.0427 70.1628 67.0427V67.0407ZM63.8881 77.7691C65.0446 77.673 66.2639 77.5687 67.4852 77.4747C67.8721 77.444 68.03 77.2396 68.0928 76.8655C68.2387 75.9824 68.0888 75.1851 67.5439 74.4635C66.4826 73.0549 63.8233 72.1146 62.1321 72.6093C61.7878 72.7095 61.4293 72.9568 61.2025 73.2389C60.8359 73.6968 60.4875 74.2059 60.285 74.7517C60.0419 75.4059 59.9447 76.1152 59.8171 76.8082C59.7604 77.1149 59.9022 77.303 60.2566 77.3398C61.4415 77.4645 62.6223 77.6178 63.8881 77.7691ZM66.9627 79.2328H60.9817C61.7331 81.8556 62.6243 84.3271 64.0137 86.6944C65.0183 84.1534 65.9844 81.7063 66.9627 79.2328ZM7.5116 40.6981C7.5035 40.743 7.49539 40.788 7.48729 40.835C7.53793 40.8759 7.58249 40.9311 7.6392 40.9556C8.66607 41.4258 9.68888 41.9062 10.7279 42.3458C10.8636 42.403 11.1269 42.2967 11.2606 42.1822C11.6798 41.8224 12.0586 41.4115 12.4677 41.0395C12.6682 40.8555 12.9052 40.7103 13.126 40.5488C13.1118 40.5039 13.0976 40.4568 13.0834 40.4119C11.2261 40.5079 9.36887 40.604 7.51362 40.7001L7.5116 40.6981ZM118.47 40.5243C118.462 40.4814 118.454 40.4405 118.446 40.3976C116.649 40.2156 114.851 40.1052 112.941 40.3485C113.239 40.6797 113.467 40.9413 113.7 41.1948C114.249 41.7931 114.891 41.9505 115.629 41.667C115.787 41.6057 115.947 41.5526 116.102 41.4892C116.892 41.1682 117.682 40.8432 118.474 40.5202L118.47 40.5243ZM66.4664 70.2257H62.8025C62.8005 70.287 62.7985 70.3504 62.7944 70.4117C64.0117 70.5487 65.231 70.6836 66.4664 70.8226V70.2257ZM94.1636 40.1849C95.1297 41.1355 95.8163 41.1723 96.4826 40.3485C95.719 40.2953 95.0021 40.2442 94.1636 40.1849ZM32.0734 40.4957H30.1047C30.0966 40.5427 30.0885 40.5877 30.0804 40.6347C30.4025 40.8616 30.7245 41.0865 31.0546 41.3195C31.399 41.0415 31.7068 40.7921 32.0734 40.4977V40.4957Z" stroke="#F0E5FF" stroke-miterlimit="10"/>
<path d="M53.6639 31.1022C53.4999 31.1349 53.3338 31.2024 53.1718 31.1942C52.3961 31.1492 51.9869 31.5479 51.8168 32.2736C51.6386 33.034 51.4482 33.7904 51.2598 34.5489C51.2193 34.7104 51.1707 34.8678 51.0228 35.0293C50.9661 34.6245 50.9074 34.2197 50.8527 33.8129C50.8001 33.4266 50.7676 33.034 50.6988 32.6497C50.5327 31.7257 49.8947 31.2146 48.9752 31.2187C47.2556 31.2249 45.5341 31.2003 43.8145 31.2187C42.5203 31.233 41.2281 31.3005 39.9339 31.3434C39.6402 32.4024 39.3708 33.3775 39.1014 34.3506L38.9374 34.3567C38.8888 34.1788 38.824 34.003 38.7916 33.8211C38.6802 33.2201 38.5546 32.6191 38.4878 32.0119C38.4412 31.5887 38.2528 31.415 37.8417 31.4048C35.6036 31.3475 33.3656 31.2841 31.1275 31.2167C30.1715 31.1881 29.2176 31.139 28.2616 31.1002" stroke="#F0E5FF" stroke-miterlimit="10"/>
<path d="M124.899 39.3673C124.668 38.3349 124.445 37.2984 124.204 36.2681" stroke="#F0E5FF" stroke-miterlimit="10"/>
<path d="M27.3542 31.1022C27.2489 31.8014 27.1335 32.4985 27.0443 33.1976C26.9755 33.7332 26.939 34.2709 26.8884 34.8085C26.8357 34.8146 26.7831 34.8208 26.7304 34.8269C26.6697 34.5182 26.6271 34.2055 26.5441 33.9029C26.3496 33.1854 26.1471 32.4719 25.9263 31.7625C25.8291 31.4477 25.6205 31.2903 25.2499 31.2883C22.6412 31.276 20.0304 31.2474 17.4218 31.2106C16.9883 31.2044 16.5549 31.139 16.1215 31.1022" stroke="#F0E5FF" stroke-miterlimit="10"/>
<path d="M100.716 31.1022C100.268 31.5254 100.031 32.0446 99.9561 32.66C99.8832 33.2651 99.7617 33.862 99.6563 34.463C99.626 34.6327 99.5855 34.8003 99.5024 34.9639C99.152 33.6453 99.2189 32.2164 98.2852 31.1022" stroke="#F0E5FF" stroke-miterlimit="10"/>
<path d="M89.5842 31.1022C89.1993 31.2126 88.8125 31.3169 88.4297 31.4354C88.055 31.5519 87.8565 31.787 87.8241 32.2102C87.7714 32.8848 87.658 33.5533 87.5709 34.2238C87.5264 34.232 87.4798 34.2402 87.4352 34.2484C87.2995 33.7598 87.0889 33.2773 87.0464 32.7806C86.9593 31.7646 86.3618 31.3496 85.4645 31.1962C85.3855 31.1819 85.3106 31.1329 85.2336 31.1002" stroke="#F0E5FF" stroke-miterlimit="10"/>
<path d="M76.2288 31.1022C75.7285 31.7503 75.4146 32.4433 75.4855 33.306C75.5219 33.7475 75.3741 34.2034 75.3093 34.6532C75.2505 34.6613 75.1898 34.6675 75.131 34.6756C75.0581 34.2668 74.9589 33.86 74.9163 33.4491C74.8617 32.9257 74.8394 32.3983 74.8252 31.8729C74.8191 31.5826 74.7098 31.4498 74.4201 31.4089C73.8064 31.323 73.1968 31.2065 72.5872 31.1043" stroke="#F0E5FF" stroke-miterlimit="10"/>
<path d="M112.655 31.1022C112.404 31.9424 112.151 32.7806 111.9 33.6208C111.857 33.629 111.815 33.6351 111.772 33.6433" stroke="#F0E5FF" stroke-miterlimit="10"/>
<path d="M63.5803 31.1022C63.4871 31.8688 63.3939 32.6354 63.3007 33.4041L63.1367 33.4327C62.9483 32.6559 62.7579 31.8811 62.5696 31.1043" stroke="#F0E5FF" stroke-miterlimit="10"/>
<path d="M66.505 61.6438C67.1004 60.1801 67.6493 58.8125 68.2083 57.451C70.2499 52.4916 72.3664 47.5689 74.7847 42.7812C75.129 42.1005 75.4612 41.4116 75.8399 40.7513C75.9351 40.5836 76.1924 40.4139 76.3787 40.4119C79.7307 40.3567 83.0827 40.322 86.4347 40.2995C86.8823 40.2954 87.332 40.3771 87.8343 40.4221C87.7755 40.5141 87.7512 40.5734 87.7107 40.6122C85.6347 42.5359 85.1689 44.9236 85.7684 47.5975C85.8595 48.0044 85.8109 48.2374 85.4686 48.497C81.1262 51.774 76.7898 55.0612 72.4657 58.3648C71.378 59.1948 70.3127 60.0595 69.2939 60.9733C68.7349 61.4741 68.1536 61.7133 67.4245 61.6499C67.1592 61.6274 66.8878 61.6458 66.5029 61.6458L66.505 61.6438Z" stroke="#F0E5FF" stroke-miterlimit="10"/>
<path d="M40.0798 47.9246C40.1041 47.8449 40.1061 47.7897 40.1325 47.7529C41.3133 46.1767 40.8677 44.5781 40.0636 43.0715C39.6261 42.2517 38.9051 41.5873 38.3116 40.8555C38.2164 40.7389 38.1111 40.6326 37.939 40.4425C38.1618 40.4221 38.2975 40.3976 38.4332 40.3976C42.1923 40.3976 45.9494 40.4016 49.7085 40.3873C50.0568 40.3873 50.2148 40.5141 50.3465 40.8146C53.1273 47.1519 55.9183 53.483 58.7012 59.8182C58.9665 60.4213 59.1913 61.0448 59.4992 61.8134C58.9989 61.6315 58.5938 61.5395 58.2434 61.3453C57.7897 61.0918 57.3097 60.824 56.9654 60.4458C56.1188 59.5218 54.9988 59.0373 53.984 58.379C52.5987 57.4816 51.1202 56.6762 49.8948 55.5866C46.956 52.9699 43.6748 50.8213 40.6165 48.3743C40.4342 48.2271 40.258 48.0738 40.0818 47.9266L40.0798 47.9246Z" stroke="#F0E5FF" stroke-miterlimit="10"/>
<path d="M52.7606 40.4589H59.9122C59.9224 40.4957 59.9325 40.5305 59.9426 40.5673C59.7684 40.6429 59.5963 40.7226 59.4201 40.7962C58.6099 41.1397 57.9557 41.6712 57.6377 42.5073C57.2266 43.5846 56.783 44.7192 56.9937 45.8701C57.5648 48.9876 59.8535 50.9113 62.9949 50.7539C66.0107 50.6026 68.3642 48.1188 68.4594 44.9972C68.51 43.3557 68.0583 41.9083 66.831 40.7655C66.7702 40.7083 66.7155 40.6429 66.6608 40.5795C66.6507 40.5693 66.6527 40.5468 66.6507 40.5305C67.2502 40.1747 71.945 40.1645 73.2474 40.5386C73.142 40.8535 73.0408 41.1683 72.9314 41.479C71.4043 45.8456 69.3748 49.9955 67.5074 54.2169C66.4846 56.527 65.559 58.882 64.6132 61.2268C64.4734 61.5743 64.3235 61.7378 63.9326 61.7256C63.4648 61.7113 62.9908 61.7542 62.523 61.8155C62.207 61.8564 62.0632 61.7092 61.9417 61.4537C60.2586 57.8762 58.5087 54.3294 56.9066 50.7151C55.5334 47.6139 54.3283 44.435 53.0523 41.2909C52.9571 41.0579 52.8842 40.8146 52.7606 40.4609V40.4589Z" stroke="#F0E5FF" stroke-miterlimit="10"/>
<path d="M21.7035 47.0354C22.3273 44.2838 21.4645 42.1475 19.1414 40.5223C19.3277 40.4835 19.431 40.4446 19.5343 40.4426C21.9303 40.3935 24.3223 40.3771 26.6616 41.0191C27.6804 41.2991 28.612 41.7611 29.4323 42.4439C29.7058 42.6729 29.7928 42.9018 29.7098 43.28C29.2642 45.2936 29.4242 47.2091 30.7914 48.867C31.8425 50.1406 33.2927 50.5434 34.8442 50.8071C36.0229 51.0074 36.9586 50.5699 37.8721 49.9689C38.4615 49.5825 39.0043 49.5825 39.5511 50.0078C40.0717 50.4125 40.6469 50.7682 41.0884 51.2466C42.4434 52.7164 44.0475 53.8694 45.6455 55.0306C47.6142 56.4616 49.6315 57.8251 51.5556 59.3133C52.3678 59.9409 53.2589 60.3907 54.1157 60.9181C54.4134 61.1 54.6868 61.3229 54.938 61.5886C43.7842 56.9215 32.7013 52.1011 21.7035 47.0354Z" stroke="#F0E5FF" stroke-miterlimit="10"/>
<path d="M72.5952 60.7545C73.5147 60.0145 74.4059 59.2336 75.3619 58.5426C79.3357 55.6724 83.3297 52.835 87.3096 49.973C87.6296 49.742 87.8929 49.7236 88.2291 49.9137C89.3451 50.5454 90.5482 50.9133 91.8181 50.6169C94.5767 49.973 96.3894 47.7427 96.4259 44.9195C96.4319 44.4268 96.355 43.9321 96.3894 43.4435C96.4097 43.1655 96.515 42.8466 96.6892 42.6381C97.6087 41.5444 98.8219 40.9597 100.193 40.6572C102.265 40.1993 104.363 40.1666 106.609 40.2238C106.425 40.416 106.322 40.5325 106.21 40.6388C104.675 42.0984 104.096 43.8728 104.527 45.958C104.598 46.2994 104.497 46.4466 104.213 46.5856C101.153 48.082 98.113 49.6214 95.0385 51.083C91.5974 52.7205 88.134 54.3089 84.6624 55.883C83.5444 56.39 82.3636 56.7579 81.2314 57.2343C78.4972 58.3852 75.773 59.5647 73.0469 60.732C72.9254 60.7831 72.8038 60.8322 72.6823 60.8813C72.654 60.8383 72.6256 60.7954 72.5952 60.7525V60.7545Z" stroke="#F0E5FF" stroke-miterlimit="10"/>
<path d="M122.693 38.249C121.818 38.249 121.079 38.249 120.34 38.249C118.067 38.249 115.795 38.2388 113.522 38.2572C113.113 38.2613 112.965 38.1284 113.02 37.7318C113.216 36.3376 113.393 34.9414 113.611 33.5512C113.713 32.9093 113.931 32.7642 114.575 32.7642C116.765 32.7642 118.952 32.7724 121.142 32.756C121.51 32.754 121.654 32.848 121.725 33.2385C122.019 34.8882 122.357 36.5277 122.695 38.247L122.693 38.249Z" stroke="#F0E5FF" stroke-miterlimit="10"/>
<path d="M86.3152 38.339H76.889C76.9457 37.4129 76.968 36.4991 77.0693 35.5956C77.1483 34.8903 77.3306 34.1952 77.4541 33.494C77.5108 33.1751 77.6607 33.0525 77.999 33.0545C80.2917 33.0688 82.5864 33.0566 84.8792 33.0729C85.0351 33.0729 85.2984 33.2017 85.3248 33.3162C85.6731 34.8024 85.9911 36.2968 86.3111 37.7891C86.3374 37.9158 86.3152 38.0548 86.3152 38.337V38.339Z" stroke="#F0E5FF" stroke-miterlimit="10"/>
<path d="M15.9757 38.3369C16.0709 37.5846 16.1418 36.8814 16.2532 36.1843C16.395 35.2971 16.5833 34.4181 16.719 33.5288C16.7656 33.2242 16.8851 33.1322 17.1727 33.1322C19.2609 33.1404 21.349 33.1424 23.4352 33.1383C24.0185 33.1383 24.3729 33.3632 24.614 33.9438C25.1892 35.3339 25.4991 36.7812 25.7441 38.3349C22.4995 38.5598 19.2994 38.6068 15.9777 38.339L15.9757 38.3369Z" stroke="#F0E5FF" stroke-miterlimit="10"/>
<path d="M73.9725 38.4289C72.8443 38.4289 71.8377 38.431 70.8331 38.4289C68.9151 38.4228 66.995 38.4023 65.077 38.4126C64.6152 38.4146 64.5038 38.2613 64.5707 37.8136C64.7833 36.3867 64.9676 34.9557 65.1499 33.5267C65.1864 33.2364 65.2654 33.0545 65.6076 33.0606C67.947 33.0893 70.2863 33.1015 72.6256 33.1383C72.7694 33.1404 73.0003 33.2651 73.0368 33.3836C73.5451 34.972 73.7456 36.6197 73.9725 38.431V38.4289Z" stroke="#F0E5FF" stroke-miterlimit="10"/>
<path d="M110.344 38.2306C110.105 38.2429 109.941 38.2572 109.777 38.2572C106.998 38.2879 104.22 38.3165 101.441 38.3451C100.849 38.3512 100.752 38.2511 100.857 37.6684C101.113 36.2661 101.378 34.8678 101.639 33.4674C101.682 33.2446 101.72 33.0565 102.034 33.0565C104.459 33.0525 106.881 33.032 109.305 33.0177C109.388 33.0177 109.469 33.0341 109.623 33.0525C109.862 34.7635 110.322 36.4439 110.342 38.2286L110.344 38.2306Z" stroke="#F0E5FF" stroke-miterlimit="10"/>
<path d="M28.1928 38.431C28.3711 37.1635 28.5452 35.9247 28.7194 34.6859C28.7437 34.5182 28.766 34.3506 28.7802 34.1809C28.8187 33.7148 29.0658 33.4695 29.5154 33.3387C30.6719 33.0014 31.8446 33.0525 33.0213 33.1015C34.1637 33.1486 35.306 33.1997 36.4483 33.2385C36.7278 33.2487 36.8412 33.3407 36.8939 33.6453C37.0377 34.4937 37.2382 35.3339 37.4245 36.1741C37.5339 36.6709 37.6878 37.1574 37.7668 37.6582C37.8701 38.3083 37.8134 38.3656 37.1713 38.3737C35.4214 38.3983 33.6715 38.4105 31.9195 38.4289C30.8096 38.4412 29.6977 38.4555 28.5878 38.4657C28.4744 38.4657 28.3609 38.4453 28.1908 38.4289L28.1928 38.431Z" stroke="#F0E5FF" stroke-miterlimit="10"/>
<path d="M61.7493 38.3798C61.2814 38.3798 60.8318 38.3798 60.3842 38.3798C57.9254 38.3798 55.4666 38.3717 53.0077 38.388C52.5419 38.3921 52.3515 38.2286 52.4346 37.7706C52.6189 36.7362 52.8072 35.7018 52.9956 34.6674C53.0381 34.4344 53.0908 34.2013 53.1293 33.9662C53.2589 33.1608 53.2569 33.1342 54.0873 33.1199C56.0904 33.0872 58.0935 33.0872 60.0966 33.0606C60.526 33.0545 60.7832 33.1976 60.8784 33.6494C61.1559 34.9945 61.4637 36.3335 61.7452 37.6766C61.7858 37.8688 61.7513 38.0752 61.7513 38.3798H61.7493Z" stroke="#F0E5FF" stroke-miterlimit="10"/>
<path d="M49.6881 38.3594H40.3005C40.2863 38.1223 40.2316 37.9301 40.2721 37.7605C40.6023 36.3417 40.9527 34.9271 41.2949 33.5104C41.3699 33.1976 41.5522 33.0893 41.8783 33.0934C43.8672 33.1199 45.8561 33.1363 47.845 33.1281C48.4223 33.1261 48.797 33.355 48.9387 33.8988C49.1291 34.6348 49.2993 35.3768 49.4269 36.1271C49.5464 36.8283 49.597 37.5397 49.6902 38.3594H49.6881Z" stroke="#F0E5FF" stroke-miterlimit="10"/>
<path d="M98.1556 38.2204H88.5796C88.6728 37.5989 88.7477 36.9938 88.8591 36.3948C89.0394 35.4156 89.2338 34.4364 89.4505 33.4654C89.4789 33.3345 89.6652 33.1424 89.7766 33.1444C92.1463 33.1546 94.516 33.1812 96.8857 33.2282C97.0396 33.2323 97.2705 33.3897 97.3292 33.5328C97.9267 34.9781 98.0584 36.5216 98.2042 38.0589C98.2083 38.1039 98.1779 38.1509 98.1556 38.2224V38.2204Z" stroke="#F0E5FF" stroke-miterlimit="10"/>
<path d="M13.446 38.4084C10.2965 38.4677 7.21189 38.525 4.04419 38.5843C4.13938 37.3536 4.21837 36.2579 4.31357 35.1642C4.3561 34.6735 4.43914 34.187 4.48977 33.6984C4.52421 33.3693 4.68016 33.2323 5.01637 33.2323C6.69744 33.2344 8.37851 33.2262 10.0596 33.2119C10.495 33.2078 10.9325 33.1771 11.368 33.1342C11.6758 33.1035 11.8946 33.1792 11.9938 33.4981C12.4414 34.9189 12.8951 36.3376 13.3387 37.7604C13.3913 37.9301 13.3974 38.1161 13.442 38.4064L13.446 38.4084Z" stroke="#F0E5FF" stroke-miterlimit="10"/>
<path d="M113.174 44.8439C113.279 45.911 112.85 46.8595 112.256 47.6732C111.412 48.8323 109.635 49.19 108.309 48.6176C106.822 47.9778 106.026 46.6061 106.134 44.8418C106.156 44.4718 106.221 44.1018 106.289 43.7359C106.591 42.1352 107.894 41.4177 109.36 41.1029C110.466 40.8657 111.337 41.2541 112.11 41.9798C112.929 42.7465 113.247 43.7195 113.174 44.8439Z" stroke="#F0E5FF" stroke-miterlimit="10"/>
<path d="M38.6842 45.5451C38.5749 46.786 38.2083 47.8592 37.0558 48.3417C36.0877 48.7485 35.0203 48.9447 33.9489 48.6176C33.8375 48.5829 33.7241 48.5461 33.6127 48.5134C30.9452 47.7161 30.7873 45.263 31.806 43.6807C32.2071 43.0572 32.6324 42.4276 33.1529 41.9083C33.716 41.3461 34.4937 41.1458 35.2492 41.4259C36.0654 41.7284 36.8351 42.1618 37.6108 42.5686C37.7748 42.6545 37.9389 42.8425 37.9916 43.0163C38.2427 43.8545 38.4574 44.7028 38.6842 45.5471V45.5451Z" stroke="#F0E5FF" stroke-miterlimit="10"/>
<path d="M16.314 41.2848C16.9641 41.4933 17.6284 41.663 18.2563 41.9226C18.7768 42.1373 19.0908 42.5993 19.2569 43.143C19.4351 43.7277 19.6761 44.3042 19.7571 44.9032C19.8807 45.817 19.8543 46.7144 19.0017 47.3706C18.0578 48.0943 17.0289 48.6217 15.8643 48.8139C15.4937 48.8752 15.0218 48.8221 14.7119 48.6299C14.1488 48.2824 13.604 47.849 13.1746 47.344C12.6541 46.7348 12.4678 45.9642 12.6359 45.1444C12.7068 44.7948 12.7817 44.4473 12.8485 44.0977C13.2111 42.2088 14.5802 41.4749 16.2735 41.4115C16.2856 41.3706 16.2998 41.3277 16.3119 41.2868L16.314 41.2848Z" stroke="#F0E5FF" stroke-miterlimit="10"/>
<path d="M59.1447 44.8234C59.2925 44.1488 59.4019 43.4599 59.6085 42.8037C59.6854 42.5584 59.9589 42.3028 60.2039 42.1945C60.85 41.9083 61.5144 41.6405 62.1989 41.4831C62.6344 41.3829 63.1367 41.4156 63.5762 41.5239C65.2957 41.9471 66.4684 43.5294 66.4421 45.3161C66.4198 46.8657 65.4173 47.7018 64.202 48.3232C61.6966 49.6029 59.1406 47.7978 59.1447 44.8234Z" stroke="#F0E5FF" stroke-miterlimit="10"/>
<path d="M94.4511 44.895C94.4795 46.9658 93.8314 47.8449 92.363 48.2476C91.7311 48.4214 91.0951 48.587 90.453 48.7239C90.2525 48.7668 90.0014 48.7546 89.8191 48.6687C88.774 48.1781 88.0368 47.3951 87.7512 46.2483C87.5426 45.4101 87.3684 44.5802 87.6236 43.695C88.3892 41.0211 91.2166 40.279 93.1529 42.2701C94.0056 43.1471 94.439 44.204 94.4511 44.895Z" stroke="#F0E5FF" stroke-miterlimit="10"/>
<path d="M70.1628 67.0407C68.982 67.0407 67.943 67.0223 66.904 67.0448C64.4796 67.0959 62.0552 67.1817 59.6308 67.2165C58.928 67.2267 58.2232 67.1041 57.5163 67.0591C57.2267 67.0407 57.1173 66.8915 57.1639 66.6318C57.2956 65.9143 57.4292 65.1988 57.5893 64.4874C57.6622 64.1603 57.9093 64.0683 58.2414 64.0601C60.2749 64.0172 62.3084 63.96 64.3419 63.8925C66.1262 63.8332 67.9106 63.7535 69.695 63.686C69.9421 63.6758 70.1669 63.7065 70.1649 64.054C70.1568 65.0005 70.1628 65.947 70.1628 67.0386V67.0407Z" stroke="#F0E5FF" stroke-miterlimit="10"/>
<path d="M63.8882 77.7691C62.6223 77.6178 61.4415 77.4645 60.2567 77.3398C59.9022 77.303 59.7605 77.1149 59.8172 76.8083C59.9448 76.1152 60.042 75.4059 60.285 74.7517C60.4876 74.2059 60.8339 73.6948 61.2025 73.2389C61.4294 72.9568 61.7858 72.7095 62.1322 72.6093C63.8254 72.1146 66.4847 73.055 67.544 74.4635C68.0888 75.1851 68.2387 75.9824 68.0929 76.8655C68.0301 77.2396 67.8721 77.4461 67.4853 77.4747C66.266 77.5687 65.0467 77.673 63.8882 77.7691Z" stroke="#F0E5FF" stroke-miterlimit="10"/>
<path d="M66.9626 79.2328C65.9864 81.7064 65.0183 84.1534 64.0137 86.6944C62.6243 84.3271 61.7331 81.8556 60.9817 79.2328H66.9626Z" stroke="#F0E5FF" stroke-miterlimit="10"/>
<path d="M7.51156 40.6981C9.36884 40.602 11.2261 40.5059 13.0814 40.4099C13.0955 40.4548 13.1097 40.5018 13.1239 40.5468C12.9031 40.7083 12.6682 40.8535 12.4656 41.0374C12.0565 41.4095 11.6778 41.8204 11.2585 42.1802C11.1248 42.2947 10.8615 42.401 10.7258 42.3437C9.68682 41.9042 8.664 41.4238 7.63713 40.9536C7.58042 40.9271 7.53586 40.8739 7.48523 40.833C7.49333 40.788 7.50143 40.7431 7.50953 40.6961L7.51156 40.6981Z" stroke="#F0E5FF" stroke-miterlimit="10"/>
<path d="M118.47 40.5243C117.68 40.8473 116.89 41.1703 116.098 41.4933C115.942 41.5567 115.782 41.6098 115.624 41.6712C114.889 41.9546 114.246 41.7972 113.696 41.1989C113.463 40.9434 113.234 40.6838 112.937 40.3526C114.847 40.1093 116.645 40.2177 118.442 40.4017C118.45 40.4446 118.458 40.4855 118.466 40.5284L118.47 40.5243Z" stroke="#F0E5FF" stroke-miterlimit="10"/>
<path d="M66.4665 70.2256V70.8226C65.231 70.6836 64.0117 70.5486 62.7944 70.4117C62.7965 70.3503 62.7985 70.287 62.8025 70.2256H66.4665Z" stroke="#F0E5FF" stroke-miterlimit="10"/>
<path d="M94.1636 40.1849C95.0021 40.2442 95.7191 40.2933 96.4826 40.3485C95.8163 41.1723 95.1317 41.1376 94.1636 40.1849Z" stroke="#F0E5FF" stroke-miterlimit="10"/>
<path d="M32.0734 40.4957C31.7068 40.7921 31.399 41.0415 31.0547 41.3175C30.7245 41.0845 30.4025 40.8596 30.0804 40.6327C30.0885 40.5856 30.0966 40.5407 30.1047 40.4937H32.0734V40.4957Z" stroke="#F0E5FF" stroke-miterlimit="10"/>
</g>
<defs>
<clipPath id="clip0_574_850">
<rect width="124" height="59" fill="white" transform="translate(1 31)"/>
</clipPath>
</defs>
</svg>
